<?xml version="1.0" encoding="utf-8"?>
<!-- Generator: Adobe Illustrator 25.3.1, SVG Export Plug-In . SVG Version: 6.00 Build 0)  -->
<svg version="1.1" id="Layer_1" xmlns="http://www.w3.org/2000/svg" xmlns:xlink="http://www.w3.org/1999/xlink" x="0px" y="0px"
	 viewBox="0 0 120 120" style="enable-background:new 0 0 120 120;" xml:space="preserve">
<style type="text/css">
	.st0{fill:#F0EDF4;}
	.st1{opacity:0.5;fill:#7E8494;enable-background:new    ;}
	.st2{fill-rule:evenodd;clip-rule:evenodd;fill:#4C7BAA;}
	.st3{fill:#54759D;}
</style>
<g>
	<path class="st0" d="M5,60c0,30.4,24.6,55,55,55s55-24.6,55-55S90.4,5,60,5S5,29.6,5,60C5,60,5,29.6,5,60z"/>
</g>
<g>
	<path class="st1" d="M44.6,48.3h30.9c2.1,0,3.9,1.7,3.9,3.9v31.1c0,2.1-1.7,3.9-3.9,3.9H44.6c-2.1,0-3.9-1.7-3.9-3.9V52.2
		C40.7,50.1,42.4,48.3,44.6,48.3z"/>
	<path class="st2" d="M83.1,25H36.9c-2.1,0-3.9,1.7-3.9,3.9v62.2c0,2.1,1.7,3.9,3.9,3.9h46.3c2.1,0,3.9-1.7,3.9-3.9V28.9
		C87,26.8,85.3,25,83.1,25z M36.9,17.3c-6.4,0-11.6,5.2-11.6,11.7v62.2c0,6.4,5.2,11.7,11.6,11.7h46.3c6.4,0,11.6-5.2,11.6-11.7
		V28.9c0-6.4-5.2-11.7-11.6-11.7H36.9z"/>
	<path class="st3" d="M40.7,36.7c0-2.1,1.7-3.9,3.9-3.9H60c2.1,0,3.9,1.7,3.9,3.9c0,2.1-1.7,3.9-3.9,3.9H44.6
		C42.4,40.6,40.7,38.8,40.7,36.7z"/>
</g>
</svg>
